Motion_pl03
version=1
nRows=9
nColumns=43
inDegrees=yes
endheader
time	pelvis_tilt	pelvis_list	pelvis_rotation	pelvis_tx	pelvis_ty	pelvis_tz	hip_flexion_r	hip_adduction_r	hip_rotation_r	knee_angle_r	ankle_angle_r	subtalar_angle_r	mtp_angle_r	hip_flexion_l	hip_adduction_l	hip_rotation_l	knee_angle_l	ankle_angle_l	subtalar_angle_l	mtp_angle_l	lumbar_extension	lumbar_bending	lumbar_rotation	neck_flexion	neck_lateral_bending	neck_rotation	arm_flex_r	arm_add_r	arm_rot_r	elbow_flex_r	pro_sup_r	wrist_flex_r	wrist_dev_r	hand_finger_flex_r	arm_flex_l	arm_add_l	arm_rot_l	elbow_flex_l	pro_sup_l	wrist_flex_l	wrist_dev_l	hand_finger_flex_l
      1.93500000	     -2.15083579	      9.76894054	     88.59748051	      0.00879756	      0.85341087	      0.33220398	     23.30432410	     -9.97809233	     -5.31582642	    -69.56531301	      3.91284128	      4.37592508	     34.94142801	     18.42395550	     -5.52469341	    -11.92622910	    -65.32719102	     12.95344856	      4.23137288	     35.50002396	    -39.05242295	     -0.68121112	     -1.86245036	    -28.81734067	     -1.93309409	     -0.19605686	     74.19265097	    -63.07942263	     31.01633824	     87.10582975	     93.88528182	    -13.26816953	     -2.22080498	     39.99727008	    211.13068332	   -112.26284949	    154.40857066	     95.46433457	    123.72223141	    -23.19806586	      9.61750021	     88.48826143
      1.93750000	     -2.15882498	      9.72912442	     88.61828385	      0.00867717	      0.85475156	      0.33221935	     23.16792079	     -9.95477161	     -5.29572532	    -69.20998933	      3.75178218	      4.37684069	     34.87735891	     18.28972778	     -5.46364963	    -11.91017657	    -64.93936265	     12.79355238	      4.22732778	     35.43731124	    -39.09032199	     -0.66438839	     -1.95449536	    -28.76476448	     -1.97972679	     -0.18189811	     73.04826803	    -62.69996762	     30.30672599	     86.95192763	     94.24428553	    -13.38210257	     -2.22703866	     40.02451824	    210.66134818	   -112.89140867	    154.20715199	     95.47782154	    123.75890452	    -23.16329320	      9.70012947	     88.41746148
      1.94000000	     -2.17081781	      9.69794505	     88.65051156	      0.00859467	      0.85609904	      0.33224850	     23.02624592	     -9.92615050	     -5.26382736	    -68.86720036	      3.59882247	      4.37201300	     34.81731366	     18.14145790	     -5.39915553	    -11.88649876	    -64.53381526	     12.63564321	      4.21369238	     35.37449859	    -39.14268580	     -0.65704439	     -2.06402190	    -28.69692128	     -1.99539869	     -0.16176897	     71.87199670	    -62.28377615	     29.54138134	     86.78307083	     94.64817785	    -13.51139130	     -2.22960665	     40.05889039	    210.20594459	   -113.48452979	    154.04297846	     95.48611949	    123.79435127	    -23.12789078	      9.78813163	     88.33385020
      1.94250000	     -2.18153920	      9.65133922	     88.65848245	      0.00822709	      0.85727957	      0.33243597	     22.94544271	     -9.91715385	     -5.19025241	    -68.56956780	      3.46711096	      4.38557661	     34.78489411	     18.05954890	     -5.31126777	    -11.85319541	    -64.22067256	     12.50187666	      4.22962661	     35.34322782	    -39.18449753	     -0.60003354	     -2.10774530	    -28.57793655	     -2.04484518	     -0.13520875	     71.16800468	    -62.00356615	     29.32509364	     86.54886762	     94.78597352	    -13.59839695	     -2.20572353	     40.05515717	    209.95859921	   -114.24851694	    153.99834636	     95.39856683	    123.75423187	    -23.13224224	      9.86631718	     88.29891613
      1.94500000	     -2.18018961	      9.66030840	     88.67609340	      0.00835870	      0.85876293	      0.33229376	     22.70928625	     -9.88336959	     -5.23295371	    -68.15074050	      3.25628114	      4.38131116	     34.73094120	     17.83127429	     -5.27789590	    -11.85675878	    -63.77680361	     12.31521433	      4.14230424	     35.27754566	    -39.26448726	     -0.61988209	     -2.21681696	    -28.59235883	     -2.10766042	     -0.16579894	     69.78963896	    -61.52141379	     28.41189213	     86.40540413	     95.19920913	    -13.89700796	     -2.21670346	     40.06159132	    209.42554406	   -114.72079764	    153.87613589	     95.41559637	    123.80389484	    -23.10079070	      9.96376396	     88.22777066
      1.94750000	     -2.18327553	      9.56322009	     88.67405309	      0.00804739	      0.85981983	      0.33266478	     22.68833914	     -9.85206119	     -5.15292500	    -67.83041067	      3.20677370	      4.38595897	     34.71672853	     17.79902417	     -5.19194209	    -11.80343341	    -63.41316496	     12.23650400	      4.16831726	     35.26128224	    -39.28141367	     -0.57379342	     -2.25727772	    -28.33244021	     -2.10987759	     -0.13030201	     69.30530495	    -61.27830027	     28.45685819	     86.14465253	     95.26336798	    -13.92588248	     -2.17437927	     40.06153639	    209.22723835	   -115.35879925	    153.97131333	     95.31169913	    123.75988950	    -23.09701477	     10.01494386	     88.21044344
      1.95000000	     -2.19472788	      9.62113575	     88.70717297	      0.00807483	      0.86136901	      0.33234249	     22.39503557	     -9.84891469	     -5.19254541	    -67.44043956	      2.91558699	      4.38722017	     34.66490710	     17.51986779	     -5.13890118	    -11.82264735	    -63.00756903	     11.98771982	      4.03432531	     35.18817518	    -39.38035076	     -0.58036429	     -2.37480588	    -28.51138098	     -2.22428043	     -0.12255608	     67.82522085	    -60.72272604	     27.41574887	     85.95114186	     95.73251777	    -14.31226330	     -2.20826602	     40.07818412	    208.73241165	   -115.98776092	    153.82308054	     95.27518835	    123.78337317	    -23.08005225	     10.14762211	     88.13927493
      1.95250000	     -2.19629520	      9.52082870	     88.70737158	      0.00779025	      0.86239013	      0.33272901	     22.37848755	     -9.81379364	     -5.11943402	    -67.12765160	      2.88687752	      4.38512495	     34.65477615	     17.49147115	     -5.05579858	    -11.77550393	    -62.64259318	     11.91739721	      4.04983560	     35.17187514	    -39.40187853	     -0.54002489	     -2.42257602	    -28.22037057	     -2.20787010	     -0.08601424	     67.33785824	    -60.45290363	     27.44392673	     85.66316643	     95.81476627	    -14.34599133	     -2.16759331	     40.08381889	    208.55371185	   -116.62494357	    153.92973661	     95.16050943	    123.74173557	    -23.07520815	     10.19979856	     88.11929422
      1.95500000	     -2.26588257	      9.58323855	     88.77720384	      0.00791791	      0.86386337	      0.33249445	     22.09875086	     -9.84882476	     -5.13466774	    -66.78640384	      2.73984033	      4.30520634	     34.62615121	     17.22610964	     -4.92672516	    -11.75348641	    -62.24288506	     11.68811459	      3.86264469	     35.08074754	    -39.53850206	     -0.63894308	     -2.58465205	    -28.20980630	     -2.06610732	     -0.01155926	     65.59453139	    -59.78388770	     25.94790095	     85.45612592	     96.75746619	    -14.68079442	     -2.30968169	     40.28353292	    208.24086888	   -117.20882361	    153.90527131	     95.14911528	    123.81429356	    -23.01385970	     10.35837976	     87.97352098
